<?xml version="1.0" ?>
<!DOCTYPE svg  PUBLIC '-//W3C//DTD SVG 1.1//EN'  'http://www.w3.org/Graphics/SVG/1.1/DTD/svg11.dtd'>
<!-- Uploaded to: SVG Repo, www.svgrepo.com, Generator: SVG Repo Mixer Tools -->
<svg fill="#000000" width="800px" height="800px" viewBox="0 0 32 32" style="fill-rule:evenodd;clip-rule:evenodd;stroke-linejoin:round;stroke-miterlimit:2;" version="1.1" xml:space="preserve" xmlns="http://www.w3.org/2000/svg" xmlns:serif="http://www.serif.com/" xmlns:xlink="http://www.w3.org/1999/xlink">
<g id="Layer1">
<path d="M2.446,12.036l0.212,0.368l8.844,15.318l0.866,0.5c0,0 -0.86,-0.489 -0.86,-0.489l0.213,0.368c0.613,1.063 1.806,1.769 3.367,1.869c1.357,0.087 2.901,-0.3 4.287,-1.1c1.654,-0.955 3.125,-1.804 3.125,-1.804c0.478,-0.276 0.642,-0.888 0.366,-1.366l-2.948,-5.106c-0.276,-0.478 -0.888,-0.642 -1.366,-0.366l-1.69,0.975c0,0 -5.878,-10.182 -5.878,-10.182c-0,0 1.689,-0.975 1.689,-0.975c0.479,-0.276 0.643,-0.888 0.366,-1.366l-2.948,-5.106c-0.276,-0.479 -0.887,-0.643 -1.366,-0.366c0,-0 -1.471,0.849 -3.124,1.804c-1.386,0.8 -2.494,1.944 -3.097,3.162c-0.694,1.403 -0.678,2.789 -0.065,3.851l0.007,0.011Zm13.535,-0.036c2.208,0 4,1.792 4,4c-0,0.552 0.448,1 1,1c0.552,0 1,-0.448 1,-1c-0,-3.311 -2.689,-6 -6,-6c-0.552,0 -1,0.448 -1,1c-0,0.552 0.448,1 1,1Zm-0,-4c4.415,0 8,3.585 8,8c-0,0.552 0.448,1 1,1c0.552,0 1,-0.448 1,-1c-0,-5.519 -4.481,-10 -10,-10c-0.552,0 -1,0.448 -1,1c-0,0.552 0.448,1 1,1Zm-0,-4c6.623,0 12,5.377 12,12c-0,0.552 0.448,1 1,1c0.552,0 1,-0.448 1,-1c-0,-7.727 -6.273,-14 -14,-14c-0.552,0 -1,0.448 -1,1c-0,0.552 0.448,1 1,1Z"/>
</g>
</svg>