<svg width="20" height="19" viewBox="0 0 20 19" fill="none" xmlns="http://www.w3.org/2000/svg">
<path d="M0.0493681 0.0469263C0.0411631 0.0593226 0.705761 0.972515 1.52215 2.07165C2.33854 3.17079 4.07388 5.50955 5.37846 7.26569L7.74968 10.4598L7.59789 10.6333C7.51174 10.7284 5.76819 12.625 3.72517 14.8481C1.68215 17.0753 0.00424104 18.9099 0.000138583 18.9306C-0.00806633 18.9512 0.348847 18.9678 0.861654 18.9636L1.73548 18.9595L2.02265 18.6413C2.18265 18.4678 3.66773 16.8521 5.32513 15.0464C6.98252 13.2407 8.38556 11.7118 8.44299 11.6457L8.54555 11.5259L9.36605 12.6333C9.81732 13.2407 11.0604 14.9183 12.127 16.3563L14.0716 18.9678H17.0458C19.5196 18.9678 20.016 18.9595 19.9996 18.9141C19.9873 18.881 19.2325 17.8562 18.3217 16.629C17.411 15.4059 16.3689 14.001 16.0079 13.5134C15.6428 13.0258 14.5721 11.5755 13.6203 10.2986C12.6685 9.0177 11.8891 7.95162 11.8891 7.93509C11.8891 7.90616 16.9187 2.40635 18.6294 0.56757L19.1176 0.0427942H18.2191L17.3248 0.0469263L16.2787 1.18738C15.7043 1.81546 14.2972 3.3526 13.1485 4.59636L11.0686 6.86075L8.54555 3.46417L6.01844 0.0634547L3.04416 0.0427942C1.40728 0.0303979 0.057573 0.03453 0.0493681 0.0469263ZM7.09739 3.70796C8.06967 5.02196 9.57117 7.04256 10.4327 8.20367C11.2942 9.36066 13.2059 11.9391 14.6828 13.9266C16.1597 15.9183 17.3822 17.567 17.4028 17.5959C17.4274 17.6331 17.1361 17.6455 16.0736 17.6455H14.7156L12.0244 14.0175C5.81332 5.65831 2.67904 1.43531 2.64212 1.37333C2.61751 1.33614 2.89647 1.32374 3.96721 1.32374H5.32513L7.09739 3.70796Z" fill="#001151"/>
</svg>
