<svg width="20" height="14" viewBox="0 0 20 14" fill="none" xmlns="http://www.w3.org/2000/svg">
<path d="M19.5 2.12561C19.25 1.25061 18.625 0.625611 17.75 0.375611C16.25 0.000610575 9.87499 0.000610352 9.87499 0.000610352C9.87499 0.000610352 3.62501 0.000610575 2.00001 0.375611C1.12501 0.625611 0.499996 1.25061 0.249996 2.12561C-3.81842e-06 3.75061 0 7.00061 0 7.00061C0 7.00061 3.7998e-06 10.2506 0.375004 11.8756C0.625004 12.7506 1.25 13.3756 2.125 13.6256C3.625 14.0006 10 14.0006 10 14.0006C10 14.0006 16.25 14.0006 17.875 13.6256C18.75 13.3756 19.375 12.7506 19.625 11.8756C20 10.2506 20 7.00061 20 7.00061C20 7.00061 20 3.75061 19.5 2.12561ZM7.99999 10.0006V4.00061L13.25 7.00061L7.99999 10.0006Z" fill="#001151"/>
</svg>
